<svg width="24" height="24" viewBox="0 0 24 24" fill="black" xmlns="http://www.w3.org/2000/svg">
<path d="M20.9356 1.83177C20.7681 1.66421 20.5408 1.57007 20.3038 1.57007C20.0668 1.57007 19.8395 1.66421 19.6719 1.83177L18.921 2.58273C18.8645 2.63926 18.8328 2.7159 18.8328 2.79581C18.8328 2.87572 18.8645 2.95237 18.921 3.0089L20.9818 5.06931C21.0098 5.09733 21.043 5.11956 21.0796 5.13473C21.1161 5.1499 21.1553 5.15771 21.1949 5.15771C21.2345 5.15771 21.2737 5.1499 21.3103 5.13473C21.3468 5.11956 21.38 5.09733 21.408 5.06931L22.1585 4.3188C22.3261 4.15114 22.4203 3.92379 22.4203 3.68673C22.4203 3.44967 22.3261 3.22231 22.1585 3.05465L20.9356 1.83177Z" fill="black"/>
<path d="M19.8635 5.54345L18.4464 4.12677C18.3815 4.06193 18.2935 4.02551 18.2017 4.02551C18.1099 4.02551 18.0219 4.06193 17.957 4.12677L16.0428 6.04094L15.3959 5.39406C15.2934 5.29175 15.1544 5.23429 15.0095 5.23429C14.8646 5.23429 14.7256 5.29175 14.623 5.39406L14.2193 5.7978C14.1575 5.85963 14.1228 5.94345 14.1228 6.03085C14.1228 6.11825 14.1575 6.20207 14.2193 6.26389L17.7255 9.77059C17.7874 9.83239 17.8713 9.8671 17.9588 9.8671C18.0463 9.8671 18.1302 9.83239 18.1921 9.77059L18.5958 9.36685C18.6466 9.31611 18.6868 9.25586 18.7143 9.18955C18.7418 9.12324 18.7559 9.05216 18.7559 8.98038C18.7559 8.9086 18.7418 8.83753 18.7143 8.77121C18.6868 8.7049 18.6466 8.64465 18.5958 8.59391L17.9494 7.94748L19.8635 6.03287C19.8957 6.00074 19.9212 5.9626 19.9386 5.92061C19.956 5.87862 19.965 5.83361 19.965 5.78816C19.965 5.7427 19.956 5.69769 19.9386 5.6557C19.9212 5.61372 19.8957 5.57557 19.8635 5.54345Z" fill="black"/>
<path d="M6.91429 17.4605C10.7839 16.3704 15.1017 12.6762 16.9167 11.0047C16.9587 10.9661 16.9924 10.9194 17.0159 10.8673C17.0393 10.8153 17.052 10.7591 17.0532 10.702C17.0543 10.645 17.0439 10.5883 17.0225 10.5354C17.0011 10.4825 16.9692 10.4344 16.9288 10.3942L15.9226 9.38797C15.9007 9.36586 15.8746 9.34831 15.8459 9.33633C15.8172 9.32435 15.7864 9.31819 15.7553 9.31819C15.7241 9.31819 15.6933 9.32435 15.6646 9.33633C15.6359 9.34831 15.6098 9.36586 15.5879 9.38797C12.9946 12.015 11.0122 13.4891 9.92394 14.2777C9.89471 14.2985 9.85904 14.3083 9.82327 14.3053C9.7875 14.3023 9.75396 14.2867 9.72861 14.2613C9.70326 14.2359 9.68774 14.2023 9.68482 14.1666C9.68189 14.1308 9.69176 14.0951 9.71265 14.0659C10.4999 12.979 11.9736 10.9957 14.6024 8.4024C14.6244 8.38043 14.6419 8.35432 14.6539 8.32557C14.6658 8.29681 14.672 8.26598 14.672 8.23484C14.672 8.20371 14.6658 8.17288 14.6539 8.14412C14.6419 8.11537 14.6244 8.08926 14.6024 8.06729L13.5962 7.06109C13.5558 7.02075 13.5077 6.98897 13.4548 6.96767C13.4018 6.94636 13.3451 6.93596 13.2881 6.9371C13.231 6.93823 13.1748 6.95086 13.1227 6.97425C13.0707 6.99764 13.0239 7.03129 12.9852 7.0732C11.3119 8.88868 7.61994 13.2087 6.52984 17.0769C6.51493 17.1302 6.51447 17.1865 6.52852 17.24C6.54256 17.2934 6.5706 17.3422 6.60975 17.3813C6.64891 17.4204 6.69776 17.4483 6.75128 17.4622C6.80481 17.4761 6.86107 17.4755 6.91429 17.4605Z" fill="black"/>
<path d="M5.5241 11.3811C5.55761 11.4365 5.60744 11.4802 5.66676 11.5062C5.72609 11.5322 5.792 11.5393 5.85547 11.5263C5.91894 11.5134 5.97686 11.4812 6.0213 11.4341C6.06574 11.3869 6.09451 11.3272 6.10369 11.2631L6.52941 8.62713C6.58458 8.28709 6.13329 8.11662 5.94982 8.40821L5.24328 9.52971C5.11081 9.74008 5.04053 9.98361 5.04053 10.2322C5.04053 10.4808 5.11081 10.7243 5.24328 10.9347L5.5241 11.3811Z" fill="black"/>
<path d="M2.2331 22.4364H14.718C15.0249 22.4364 15.1007 22.0102 14.8131 21.9039L10.6793 20.3814C10.5961 20.3506 10.5213 20.3006 10.4611 20.2355C10.4008 20.1703 10.3569 20.0918 10.3328 20.0065C10.3087 19.9211 10.3051 19.8312 10.3224 19.7441C10.3396 19.6571 10.3772 19.5754 10.4321 19.5057L10.9902 18.7978C11.0387 18.7367 11.0685 18.6628 11.0759 18.5851C11.0833 18.5075 11.0681 18.4293 11.032 18.3601C10.996 18.2909 10.9406 18.2336 10.8727 18.1952C10.8047 18.1568 10.7271 18.139 10.6492 18.1437L6.36154 18.3896C6.26071 18.395 6.15986 18.3792 6.06558 18.343C5.9713 18.3068 5.88571 18.2512 5.81441 18.1796C5.74311 18.1081 5.6877 18.0224 5.65181 17.928C5.61591 17.8336 5.60034 17.7327 5.60611 17.6319L5.8636 13.3419C5.86858 13.264 5.85082 13.1863 5.8125 13.1182C5.77418 13.0501 5.71692 12.9946 5.64769 12.9584C5.57845 12.9222 5.50021 12.9069 5.42244 12.9143C5.34467 12.9217 5.27071 12.9515 5.20954 13.0001L4.50076 13.5582C4.43108 13.6131 4.3494 13.6507 4.2624 13.6679C4.1754 13.6852 4.08555 13.6816 4.00019 13.6575C3.91483 13.6334 3.83638 13.5895 3.77127 13.5292C3.70615 13.469 3.65622 13.3942 3.62554 13.311L2.10255 9.17716C1.99669 8.88916 1.57007 8.96543 1.57007 9.27227V21.7734C1.57007 21.9492 1.63992 22.1178 1.76426 22.2422C1.88861 22.3665 2.05725 22.4364 2.2331 22.4364Z" fill="black"/>
<path d="M12.6092 18.4823L13.0542 18.7627C13.2646 18.8953 13.5081 18.9656 13.7567 18.9656C14.0054 18.9656 14.2489 18.8953 14.4592 18.7627L15.5807 18.0562C15.8723 17.8727 15.7019 17.4214 15.3618 17.4766L12.7259 17.9023C12.6617 17.9116 12.602 17.9405 12.5549 17.985C12.5079 18.0296 12.4757 18.0876 12.4629 18.1512C12.4502 18.2147 12.4574 18.2807 12.4836 18.3399C12.5097 18.3992 12.5536 18.449 12.6092 18.4823Z" fill="black"/>
</svg>
