<svg width="24" height="24" viewBox="0 0 24 24" xmlns="http://www.w3.org/2000/svg">
<path d="M12.3603 4.85971C12.6552 5.02361 13.174 5.28017 13.7658 5.42772C13.8491 5.44901 13.9392 5.44557 14.0197 5.41805C14.1001 5.39052 14.1654 5.34075 14.2037 5.27783C14.4364 4.89241 15.0013 4.11963 15.834 4.03203C15.8963 4.02558 15.9557 4.00691 16.0068 3.97769C16.0579 3.94847 16.0992 3.90959 16.127 3.86453C16.1549 3.81946 16.1684 3.76959 16.1663 3.71935C16.1643 3.66911 16.1467 3.62005 16.1153 3.57654C15.9403 3.3291 15.6565 3.14259 15.3191 3.0533C15.0215 2.9788 14.7019 2.98248 14.4072 3.06381C13.8972 3.19735 12.9618 3.55941 12.2591 4.48441C12.2127 4.54543 12.1973 4.61839 12.2161 4.68823C12.2349 4.75806 12.2866 4.81945 12.3603 4.85971Z" />
<path d="M16.7292 6.22623C17.1433 6.38067 17.5701 6.51231 18.0066 6.62021C18.1054 6.64393 18.2106 6.64486 18.31 6.62289C18.4095 6.60092 18.4991 6.55695 18.5687 6.49602C19.0067 6.10671 20.1376 5.34327 21.7226 6.0269C21.9012 6.10476 22.1119 5.97668 22.057 5.82368C21.854 5.26463 21.2813 4.3404 19.6972 4.2275C19.3289 4.20144 18.958 4.24216 18.612 4.34663C18.0816 4.50663 17.2558 4.85546 16.5302 5.59009C16.4813 5.63986 16.4474 5.69791 16.4309 5.7598C16.4143 5.82168 16.4158 5.88577 16.435 5.94715C16.4542 6.00854 16.4907 6.0656 16.5417 6.11397C16.5927 6.16234 16.6568 6.20074 16.7292 6.22623Z" />
<path d="M20.4934 6.31182C20.6643 6.31086 20.8349 6.3239 21.0024 6.35075C21.3502 6.40533 21.6659 6.54967 21.9012 6.76163C22.1366 6.97358 22.2785 7.24145 22.3052 7.52414C22.4151 8.80887 22.6278 12.6631 21.4209 14.4181C21.1557 14.8035 20.455 14.8257 20.1454 14.4605C20.0837 14.3885 20.0437 14.306 20.0287 14.2195C20.0136 14.133 20.024 14.0449 20.0588 13.9622C20.2759 13.4522 20.6915 12.1375 20.5455 9.77475C20.5455 9.77475 20.3781 7.70244 20.0802 6.72293C20.0662 6.67347 20.0664 6.62211 20.0807 6.5727C20.095 6.52328 20.123 6.47709 20.1627 6.43756C20.2025 6.39803 20.2528 6.3662 20.3101 6.34442C20.3673 6.32265 20.43 6.3115 20.4934 6.31182Z" />
<path d="M16.762 12.6998C16.1293 13.1806 15.3536 13.5504 14.4592 13.7988C13.6669 14.0192 12.8479 14.0951 12.0391 14.1247C9.07791 14.2325 7.16784 12.8672 6.19115 11.8978C5.78092 11.4906 4.98137 11.5065 4.59108 11.9254C3.79007 12.7854 2.84258 13.6497 2.21579 14.2014C1.63415 14.7046 1.24298 15.3295 1.08775 16.0035C0.577268 18.332 2.40168 19.577 3.77693 20.1711C4.48743 20.4757 5.28142 20.6342 6.0875 20.6324H15.0125C18.8399 20.6324 19.0166 17.667 19.0166 17.667V11.8336C19.0166 11.4493 18.3951 11.2757 18.0842 11.5739C17.6711 11.9694 17.2296 12.3453 16.762 12.6998Z" />
<path d="M17.2886 7.56499C17.2564 7.55487 17.2243 7.54514 17.1912 7.53618C15.0393 6.93197 12.7287 6.035 11.2961 5.44636C10.9188 5.29142 10.4848 5.24942 10.0723 5.32794C9.65978 5.40647 9.29591 5.60035 9.04634 5.8746C8.51541 6.46674 7.77523 7.20605 6.94502 7.78223L6.91436 7.80364C6.41681 8.15448 6.08615 8.63212 5.9784 9.15566C5.87064 9.6792 5.99242 10.2164 6.3231 10.6764C6.37565 10.7509 6.43243 10.8274 6.49342 10.9061C8.0789 12.9531 11.2902 13.8648 14.1283 13.0784C14.8885 12.867 15.5435 12.5556 16.0749 12.1519C16.908 11.5235 17.6481 10.8208 18.2808 10.0574C18.4535 9.84801 18.5654 9.6104 18.6083 9.36195C18.6512 9.11351 18.6242 8.86052 18.529 8.62154C18.4339 8.38255 18.2731 8.16363 18.0584 7.98081C17.8438 7.798 17.5808 7.65592 17.2886 7.56499ZM10.2396 11.7104C10.0973 11.7073 9.95925 11.6706 9.84281 11.6051C9.72637 11.5395 9.63667 11.448 9.58493 11.3419C9.53318 11.2357 9.52169 11.1198 9.55188 11.0085C9.58207 10.8972 9.65261 10.7954 9.75468 10.716C9.85675 10.6366 9.98581 10.583 10.1257 10.562C10.2657 10.5409 10.4102 10.5534 10.5414 10.5977C10.6725 10.642 10.7844 10.7163 10.8631 10.8113C10.9418 10.9062 10.9837 11.0176 10.9837 11.1315C10.9808 11.2872 10.9009 11.4356 10.7614 11.5441C10.6218 11.6527 10.4342 11.7125 10.2396 11.7104Z"/>
</svg>
